<?xml version="1.0" encoding="UTF-8" standalone="no"?>
<!DOCTYPE svg PUBLIC "-//W3C//DTD SVG 1.1//EN" "http://www.w3.org/Graphics/SVG/1.1/DTD/svg11.dtd">
<svg width="100%" height="100%" viewBox="0 0 442 350" version="1.1" xmlns="http://www.w3.org/2000/svg" xmlns:xlink="http://www.w3.org/1999/xlink" xml:space="preserve" xmlns:serif="http://www.serif.com/" style="fill-rule:evenodd;clip-rule:evenodd;stroke-linejoin:round;stroke-miterlimit:2;">
    <g transform="matrix(1,0,0,1,-9,0)">
        <g transform="matrix(-1,0,0,1,460,0)">
            <g transform="matrix(-1,0,0,1,461.02,-2.86438e-14)">
                <g transform="matrix(-1,2.44929e-16,2.44929e-16,1,470.953,-1.13687e-13)">
                    <path d="M282.37,130L282.37,155L327.37,155L327.37,200L352.4,200L352.4,129.992L282.37,130Z"/>
                </g>
                <g transform="matrix(-1,2.44929e-16,2.44929e-16,1,383.42,-1.13687e-13)">
                    <path d="M282.37,130L282.37,155L327.37,155L327.37,200L352.4,200L352.4,129.992L282.37,130Z"/>
                </g>
            </g>
            <g transform="matrix(1,0,0,1,-0.983424,-2.86438e-14)">
                <g transform="matrix(-1,2.44929e-16,2.44929e-16,1,470.953,-1.13687e-13)">
                    <path d="M282.37,130L282.37,155L327.37,155L327.37,200L352.4,200L352.4,129.992L282.37,130Z"/>
                </g>
                <g transform="matrix(-1,2.44929e-16,2.44929e-16,1,383.42,-1.13687e-13)">
                    <path d="M282.37,130L282.37,155L327.37,155L327.37,200L352.4,200L352.4,129.992L282.37,130Z"/>
                </g>
            </g>
        </g>
    </g>
</svg>
